<mxfile host="app.diagrams.net" modified="2023-04-25T20:26:09.592Z" agent="Mozilla/5.0 (Windows NT 10.0; Win64; x64) AppleWebKit/537.36 (KHTML, like Gecko) Chrome/112.0.0.0 Safari/537.36" version="21.2.2" etag="drS6_9RL485HT_WMvbXA" type="github">
  <diagram name="Page-1" id="2bVvX_vX14-qdw9hiGFS">
    <mxGraphModel>
      <root>
        <mxCell id="0" />
        <mxCell id="1" parent="0" />
      </root>
    </mxGraphModel>
  </diagram>
</mxfile>
